<?xml version="1.0" encoding="UTF-8"?>
<!DOCTYPE svg PUBLIC "-//W3C//DTD SVG 1.1//EN" "http://www.w3.org/Graphics/SVG/1.1/DTD/svg11.dtd">
<!-- Creator: CorelDRAW X8 -->
<svg xmlns="http://www.w3.org/2000/svg" xml:space="preserve" width="58.2084mm" height="42.3334mm" version="1.1" style="shape-rendering:geometricPrecision; text-rendering:geometricPrecision; image-rendering:optimizeQuality; fill-rule:evenodd; clip-rule:evenodd"
viewBox="0 0 84 61"
 xmlns:xlink="http://www.w3.org/1999/xlink">
 <defs>
  <style type="text/css">
   <![CDATA[
    .fil1 {fill:#F0CB11}
    .fil2 {fill:yellow}
    .fil0 {fill:white}
   ]]>
  </style>
 </defs>
 <g id="Camada_x0020_1">
  <metadata id="CorelCorpID_0Corel-Layer"/>
  <circle class="fil0" cx="2" cy="2" r="2"/>
  <circle class="fil0" cx="13" cy="2" r="2"/>
  <circle class="fil0" cx="25" cy="2" r="2"/>
  <circle class="fil1" cx="36" cy="2" r="2"/>
  <circle class="fil1" cx="48" cy="2" r="2"/>
  <circle class="fil1" cx="59" cy="2" r="2"/>
  <circle class="fil1" cx="70" cy="2" r="2"/>
  <circle class="fil1" cx="82" cy="2" r="2"/>
  <circle class="fil0" cx="2" cy="13" r="2"/>
  <circle class="fil0" cx="13" cy="13" r="2"/>
  <circle class="fil0" cx="25" cy="13" r="2"/>
  <circle class="fil1" cx="36" cy="13" r="2"/>
  <circle class="fil1" cx="48" cy="13" r="2"/>
  <circle class="fil1" cx="59" cy="13" r="2"/>
  <circle class="fil1" cx="70" cy="13" r="2"/>
  <circle class="fil1" cx="82" cy="13" r="2"/>
  <g id="_2667742284288">
   <circle class="fil2" cx="2" cy="25" r="2"/>
   <circle class="fil2" cx="13" cy="25" r="2"/>
   <circle class="fil2" cx="25" cy="25" r="2"/>
   <circle class="fil2" cx="36" cy="25" r="2"/>
   <circle class="fil2" cx="48" cy="25" r="2"/>
   <circle class="fil2" cx="59" cy="25" r="2"/>
   <circle class="fil2" cx="70" cy="25" r="2"/>
   <circle class="fil2" cx="82" cy="25" r="2"/>
   <circle class="fil2" cx="2" cy="36" r="2"/>
   <circle class="fil2" cx="13" cy="36" r="2"/>
   <circle class="fil2" cx="25" cy="36" r="2"/>
   <circle class="fil2" cx="36" cy="36" r="2"/>
   <circle class="fil2" cx="48" cy="36" r="2"/>
   <circle class="fil2" cx="59" cy="36" r="2"/>
   <circle class="fil2" cx="70" cy="36" r="2"/>
   <circle class="fil2" cx="82" cy="36" r="2"/>
   <circle class="fil2" cx="2" cy="48" r="2"/>
   <circle class="fil2" cx="13" cy="48" r="2"/>
   <circle class="fil2" cx="25" cy="48" r="2"/>
   <circle class="fil2" cx="36" cy="48" r="2"/>
   <circle class="fil2" cx="48" cy="48" r="2"/>
   <circle class="fil2" cx="59" cy="48" r="2"/>
   <circle class="fil2" cx="70" cy="48" r="2"/>
   <circle class="fil2" cx="82" cy="48" r="2"/>
   <circle class="fil2" cx="2" cy="59" r="2"/>
   <circle class="fil2" cx="13" cy="59" r="2"/>
   <circle class="fil2" cx="25" cy="59" r="2"/>
   <circle class="fil2" cx="36" cy="59" r="2"/>
   <circle class="fil2" cx="48" cy="59" r="2"/>
   <circle class="fil2" cx="59" cy="59" r="2"/>
   <circle class="fil2" cx="70" cy="59" r="2"/>
   <circle class="fil2" cx="82" cy="59" r="2"/>
  </g>
 </g>
</svg>
