<?xml version="1.0" encoding="UTF-8"?>
<!DOCTYPE svg PUBLIC "-//W3C//DTD SVG 1.1//EN" "http://www.w3.org/Graphics/SVG/1.1/DTD/svg11.dtd">
<!-- Creator: CorelDRAW X8 -->
<svg xmlns="http://www.w3.org/2000/svg" xml:space="preserve" width="130.925mm" height="168.963mm" version="1.1" style="shape-rendering:geometricPrecision; text-rendering:geometricPrecision; image-rendering:optimizeQuality; fill-rule:evenodd; clip-rule:evenodd"
viewBox="0 0 11327 14617"
 xmlns:xlink="http://www.w3.org/1999/xlink">
 <defs>
  <style type="text/css">
   <![CDATA[
    .fil2 {fill:none}
    .fil0 {fill:#F6C327}
    .fil1 {fill:#FFE047;fill-opacity:0.301961}
   ]]>
  </style>
   <clipPath id="id0">
    <path d="M7309 0c4036,0 -1535,4782 2028,7309 3562,2526 2008,7308 -2028,7308 -4037,0 -7309,-3272 -7309,-7308 0,-4037 3272,-7309 7309,-7309z"/>
   </clipPath>
 </defs>
 <g id="Camada_x0020_1">
  <metadata id="CorelCorpID_0Corel-Layer"/>
  <path class="fil0" d="M7309 0c4036,0 -1535,4782 2028,7309 3562,2526 2008,7308 -2028,7308 -4037,0 -7309,-3272 -7309,-7308 0,-4037 3272,-7309 7309,-7309z"/>
  <g style="clip-path:url(#id0)">
   <g id="_2667652913664">
    <path id="1" class="fil1" d="M5082 14854c-4036,0 1535,-4782 -2028,-7309 -3563,-2526 -2008,-7309 2028,-7309 4036,0 7309,3273 7309,7309 0,4037 -3273,7309 -7309,7309z"/>
   </g>
  </g>
  <path class="fil2" d="M7309 0c4036,0 -1535,4782 2028,7309 3562,2526 2008,7308 -2028,7308 -4037,0 -7309,-3272 -7309,-7308 0,-4037 3272,-7309 7309,-7309z"/>
 </g>
</svg>
