<?xml version="1.0" encoding="UTF-8"?>
<!DOCTYPE svg PUBLIC "-//W3C//DTD SVG 1.1//EN" "http://www.w3.org/Graphics/SVG/1.1/DTD/svg11.dtd">
<!-- Creator: CorelDRAW X8 -->
<svg xmlns="http://www.w3.org/2000/svg" xml:space="preserve" width="97.8958mm" height="42.3334mm" version="1.1" style="shape-rendering:geometricPrecision; text-rendering:geometricPrecision; image-rendering:optimizeQuality; fill-rule:evenodd; clip-rule:evenodd"
viewBox="0 0 2230 965"
 xmlns:xlink="http://www.w3.org/1999/xlink">
 <defs>
  <style type="text/css">
   <![CDATA[
    .fil0 {fill:#F0CB11}
    .fil2 {fill:yellow}
    .fil1 {fill:white}
   ]]>
  </style>
 </defs>
 <g id="Camada_x0020_1">
  <metadata id="CorelCorpID_0Corel-Layer"/>
  <g id="_2669013319360">
   <circle class="fil0" cx="2200" cy="30" r="30"/>
   <circle class="fil0" cx="2020" cy="30" r="30"/>
   <circle class="fil0" cx="1839" cy="30" r="30"/>
   <circle class="fil0" cx="1658" cy="30" r="30"/>
   <circle class="fil0" cx="1477" cy="30" r="30"/>
   <circle class="fil0" cx="1296" cy="30" r="30"/>
   <circle class="fil0" cx="1115" cy="30" r="30"/>
   <circle class="fil0" cx="934" cy="30" r="30"/>
   <circle class="fil0" cx="754" cy="30" r="30"/>
   <circle class="fil0" cx="573" cy="30" r="30"/>
   <circle class="fil0" cx="392" cy="30" r="30"/>
   <circle class="fil0" cx="211" cy="30" r="30"/>
   <circle class="fil0" cx="30" cy="30" r="30"/>
   <circle class="fil0" cx="2200" cy="211" r="30"/>
   <circle class="fil0" cx="2020" cy="211" r="30"/>
   <circle class="fil0" cx="1839" cy="211" r="30"/>
   <circle class="fil0" cx="1658" cy="211" r="30"/>
   <circle class="fil0" cx="1477" cy="211" r="30"/>
   <circle class="fil0" cx="1296" cy="211" r="30"/>
   <circle class="fil0" cx="1115" cy="211" r="30"/>
   <circle class="fil0" cx="934" cy="211" r="30"/>
   <circle class="fil0" cx="754" cy="211" r="30"/>
   <circle class="fil0" cx="573" cy="211" r="30"/>
   <circle class="fil0" cx="392" cy="211" r="30"/>
   <circle class="fil0" cx="211" cy="211" r="30"/>
   <circle class="fil0" cx="30" cy="211" r="30"/>
  </g>
  <circle class="fil1" cx="754" cy="392" r="30"/>
  <circle class="fil1" cx="573" cy="392" r="30"/>
  <circle class="fil1" cx="392" cy="392" r="30"/>
  <circle class="fil1" cx="211" cy="392" r="30"/>
  <circle class="fil1" cx="30" cy="392" r="30"/>
  <circle class="fil1" cx="754" cy="573" r="30"/>
  <circle class="fil1" cx="573" cy="573" r="30"/>
  <circle class="fil1" cx="392" cy="573" r="30"/>
  <circle class="fil1" cx="211" cy="573" r="30"/>
  <circle class="fil1" cx="30" cy="573" r="30"/>
  <circle class="fil2" cx="754" cy="754" r="30"/>
  <circle class="fil1" cx="573" cy="754" r="30"/>
  <circle class="fil1" cx="392" cy="754" r="30"/>
  <circle class="fil1" cx="211" cy="754" r="30"/>
  <circle class="fil1" cx="30" cy="754" r="30"/>
  <g id="_2667738793792">
   <circle class="fil2" cx="2200" cy="392" r="30"/>
   <circle class="fil2" cx="2020" cy="392" r="30"/>
   <circle class="fil2" cx="1839" cy="392" r="30"/>
   <circle class="fil2" cx="1658" cy="392" r="30"/>
   <circle class="fil2" cx="1477" cy="392" r="30"/>
   <circle class="fil2" cx="1296" cy="392" r="30"/>
   <circle class="fil2" cx="1115" cy="392" r="30"/>
   <circle class="fil2" cx="934" cy="392" r="30"/>
   <circle class="fil2" cx="2200" cy="573" r="30"/>
   <circle class="fil2" cx="2020" cy="573" r="30"/>
   <circle class="fil2" cx="1839" cy="573" r="30"/>
   <circle class="fil2" cx="1658" cy="573" r="30"/>
   <circle class="fil2" cx="1477" cy="573" r="30"/>
   <circle class="fil2" cx="1296" cy="573" r="30"/>
   <circle class="fil2" cx="1115" cy="573" r="30"/>
   <circle class="fil2" cx="934" cy="573" r="30"/>
   <circle class="fil2" cx="2200" cy="754" r="30"/>
   <circle class="fil2" cx="2020" cy="754" r="30"/>
   <circle class="fil2" cx="1839" cy="754" r="30"/>
   <circle class="fil2" cx="1658" cy="754" r="30"/>
   <circle class="fil2" cx="1477" cy="754" r="30"/>
   <circle class="fil2" cx="1296" cy="754" r="30"/>
   <circle class="fil2" cx="1115" cy="754" r="30"/>
   <circle class="fil2" cx="934" cy="754" r="30"/>
   <circle class="fil2" cx="2200" cy="934" r="30"/>
   <circle class="fil2" cx="2020" cy="934" r="30"/>
   <circle class="fil2" cx="1839" cy="934" r="30"/>
   <circle class="fil2" cx="1658" cy="934" r="30"/>
   <circle class="fil2" cx="1477" cy="934" r="30"/>
   <circle class="fil2" cx="1296" cy="934" r="30"/>
   <circle class="fil2" cx="1115" cy="934" r="30"/>
   <circle class="fil2" cx="934" cy="934" r="30"/>
  </g>
  <circle class="fil2" cx="754" cy="934" r="30"/>
  <circle class="fil2" cx="573" cy="934" r="30"/>
  <circle class="fil1" cx="392" cy="934" r="30"/>
  <circle class="fil1" cx="211" cy="934" r="30"/>
  <circle class="fil1" cx="30" cy="934" r="30"/>
 </g>
</svg>
