<?xml version="1.0" encoding="UTF-8"?>
<!DOCTYPE svg PUBLIC "-//W3C//DTD SVG 1.1//EN" "http://www.w3.org/Graphics/SVG/1.1/DTD/svg11.dtd">
<!-- Creator: CorelDRAW X8 -->
<svg xmlns="http://www.w3.org/2000/svg" xml:space="preserve" width="97.79mm" height="46.3238mm" version="1.1" style="shape-rendering:geometricPrecision; text-rendering:geometricPrecision; image-rendering:optimizeQuality; fill-rule:evenodd; clip-rule:evenodd"
viewBox="0 0 3346 1585"
 xmlns:xlink="http://www.w3.org/1999/xlink">
 <defs>
  <style type="text/css">
   <![CDATA[
    .fil0 {fill:none}
    .fil1 {fill:#0BA343}
    .fil3 {fill:#15A5C8}
    .fil2 {fill:#28A657}
    .fil14 {fill:#96CCD7}
    .fil12 {fill:#E71517}
    .fil13 {fill:#EBC427}
    .fil10 {fill:#EC4812}
    .fil5 {fill:#ED1628}
    .fil8 {fill:#EE2E2E}
    .fil9 {fill:#EF8C2F}
    .fil4 {fill:#F2F42F}
    .fil6 {fill:#F6C316}
    .fil7 {fill:#F6C327}
    .fil11 {fill:#F8F928}
   ]]>
  </style>
 </defs>
 <g id="Camada_x0020_1">
  <metadata id="CorelCorpID_0Corel-Layer"/>
  <rect class="fil0" y="57" width="3346" height="1446"/>
  <g id="_1774136954880">
   <path class="fil1" d="M3020 477l0 0zm0 0c1,1 4,2 3,2 0,0 13,3 26,31 1,1 2,3 2,4l21 29c0,1 2,2 2,2 1,1 2,2 3,2l22 25c1,1 2,2 2,3l18 31c0,1 1,3 1,4l8 21c1,1 2,2 2,3 1,1 2,3 2,4l11 19c55,109 22,80 40,123 4,10 6,11 9,21 5,22 -4,8 -8,35l-8 76c-1,64 -9,84 -31,152l-64 160 -89 118 -290 137c-34,9 -82,33 -135,44 -44,8 -75,21 -102,15 15,-60 30,-96 43,-153l210 -964c8,-32 19,-49 22,-73 3,-30 8,-50 15,-81 -15,-3 -16,-2 -27,-1 -94,359 -161,727 -240,1089 -3,26 -10,43 -13,57l-23 123c-8,25 -18,8 -29,50 21,3 93,-19 118,-22 78,-9 36,-1 119,-28l81 -25c61,-22 143,-52 200,-84 36,-20 48,-24 83,-55 71,-64 78,-92 113,-154 44,-77 67,-168 85,-258 12,-60 21,-98 15,-145 -4,-31 -11,-94 -23,-124l-70 -125c-31,-43 -56,-74 -95,-110 -19,-18 -25,-29 -45,-44 -46,-34 -172,-141 -220,-131 11,28 45,23 70,44 24,19 31,28 61,49 37,26 38,31 56,52 7,9 20,9 39,33l10 19z"/>
   <path class="fil2" d="M1726 623l-274 -62c19,-60 61,-258 79,-333 92,23 107,22 189,37l62 19c53,13 119,4 106,58 -6,23 -8,11 -11,33 -17,102 -38,171 -63,276 -38,-9 -48,-18 -88,-28zm84 153c-19,-14 8,-51 13,-65 11,-31 3,-51 10,-78 3,-13 43,-142 45,-145l44 -182c-13,-12 -17,-20 -33,-27l-330 -71c-2,-1 -28,-6 -28,-6 -28,-1 -6,-12 -25,7l-49 202 -43 175c6,23 -24,181 -40,215 -1,36 -19,75 -19,115 20,-9 10,4 19,-26 18,-60 4,-35 37,-121 9,-21 30,-135 39,-176l312 69c6,1 24,8 41,12 -17,70 -26,119 -36,185 -7,40 -31,121 -45,179 -91,-22 -276,-80 -352,-81l-3 12c63,16 102,32 165,48 54,13 125,27 167,38 58,15 51,-3 75,-104 16,-65 20,-109 36,-175z"/>
   <path class="fil3" d="M695 165c8,24 13,15 10,41l-25 120c-8,34 -4,42 -31,38 -16,67 -32,134 -48,201l-30 151c-7,29 -25,37 91,66l305 69c21,-42 23,-90 34,-143 -1,-23 13,-79 20,-108 5,-21 31,-91 11,-102 -16,71 -53,170 -65,227 -5,22 -1,18 -7,45l-9 46c-15,-4 -339,-69 -352,-87l66 -325c57,14 114,28 172,43 70,17 94,17 162,33l3 -11c-74,-19 -93,-28 -153,-50 -55,-20 -135,-25 -171,-43l83 -352 165 36c64,12 129,31 193,47l-13 53c-7,28 -3,40 -9,67 -9,44 -22,91 -32,135 16,15 0,-9 6,13 7,29 -4,-25 1,9l2 20c10,-21 9,-18 17,-46 9,-35 2,-22 23,-38 16,-24 -12,-14 32,-10 5,0 13,4 21,4l-62 -15 39 -171c7,-32 3,-15 -7,-42 -60,-15 -368,-91 -395,-86 -24,29 -34,120 -47,165z"/>
   <path class="fil4" d="M2223 784c67,35 254,70 343,92 14,63 -35,173 -50,240l-30 125 -262 -65c-27,-7 -32,-14 -52,-18 -17,-3 -33,4 -35,-19l86 -355zm505 -518l-63 249c-60,-14 -119,-29 -179,-44 -67,-17 -117,-23 -179,-38 14,34 110,46 174,62l177 50c-13,52 -25,103 -37,155 -14,58 -29,93 -43,153 -57,-14 -115,-28 -172,-42 -62,-16 -108,-21 -174,-37l29 -135c5,-29 3,-48 8,-76 7,-31 20,-61 15,-85 -21,8 -17,13 -24,44 -5,25 -5,37 -18,51 12,22 -16,108 -26,134l-10 19 -57 238 -5 19 -41 175c5,35 7,21 84,40 46,11 70,27 112,34 90,15 104,37 205,38 -6,26 -20,64 -16,85 79,-362 146,-730 240,-1089z"/>
   <path class="fil5" d="M695 165c-27,-23 -224,-50 -288,-60 -30,-5 -63,-31 -100,-23 -20,12 -66,247 -78,302 -30,134 -50,89 155,140 47,11 143,46 180,38 -10,-23 -53,-25 -74,-32 -89,-28 -20,-16 -164,-53 -48,-11 -58,-8 -83,-20 8,-34 16,-68 24,-102l18 -89c5,-25 29,-132 40,-155l166 32c65,10 134,30 199,46 -8,37 -19,46 -22,80 -3,33 -11,61 -19,95 27,4 23,-4 31,-38l25 -120c3,-26 -2,-17 -10,-41z"/>
   <path class="fil6" d="M2915 893c-80,-20 -115,15 -143,55 -13,18 -26,23 -20,74l3 19c15,68 125,77 179,82 61,5 53,-11 57,-22 -87,-20 -206,-5 -205,-95 1,-44 18,-22 30,-68 43,7 65,-48 141,26l40 57c21,48 -11,64 11,90 21,-8 16,-14 23,-60 3,-21 7,-18 5,-30 0,0 -3,-8 -4,-11l-3 -8c-18,-50 -59,-96 -114,-109z"/>
   <path class="fil7" d="M1414 586c-9,39 -18,48 -27,85 -7,32 -15,64 -22,96 -424,-105 -356,-42 -319,-213 7,-34 11,-29 15,-70 2,-30 4,-44 13,-80l-2 -20c-5,-34 6,20 -1,-9 -6,-22 10,2 -6,-13 -6,8 -2,2 -4,11l-11 51c-6,24 -12,49 -18,74 20,11 -6,81 -11,102 -7,29 -21,85 -20,108l373 93c16,-34 46,-192 40,-215z"/>
   <path class="fil8" d="M1878 488c-2,3 -42,132 -45,145 -7,27 1,47 -10,78 -5,14 -32,51 -13,65 5,-22 16,-49 26,-74l42 -186 270 65c39,12 48,8 82,16 -9,38 -32,95 -24,129l10 -19c10,-26 38,-112 26,-134 -31,-7 -41,-15 -82,-25l-90 -22c-34,-10 -65,-17 -98,-21 -27,-4 -54,-16 -94,-17z"/>
   <path class="fil9" d="M2456 627c-11,32 -57,76 -106,75 -18,-19 -61,-61 -4,-97 47,-30 94,14 110,22zm87 110c-25,-6 -18,-9 -35,-45 -8,-16 -18,-32 -18,-50 28,-7 41,-7 55,23 7,13 9,21 12,33 6,24 -3,15 12,33 28,-20 -16,-111 -35,-116 -31,-7 -30,-9 -53,12 -39,-42 -28,-38 -82,-51 -28,-7 -42,-4 -61,8 -14,8 -33,25 -44,35 0,14 1,22 3,34 5,53 50,94 96,70 1,0 2,-1 3,-2l70 -52c1,-1 2,-2 3,-3 1,0 2,-2 3,-3 1,24 52,134 106,83 -25,-20 -3,0 -35,-9z"/>
   <path class="fil10" d="M2146 633c-7,29 -2,23 -4,47 -2,17 -6,19 -9,47 -4,40 -6,66 -16,107l-56 -73c-16,-19 -4,-12 -35,-19 0,-18 -1,-34 -1,-51 -24,9 -23,0 -31,24 -93,-23 -85,-56 -120,-24 23,8 33,18 57,27 32,10 35,9 56,27 -7,15 -27,33 -14,43 17,14 28,-12 35,-26 47,16 40,45 75,57 -4,24 -6,4 10,45 11,28 4,22 41,31 13,-54 51,-219 12,-262z"/>
   <path class="fil7" d="M1502 744c87,22 30,96 10,91 -73,-18 -47,-100 -10,-91zm-62 23c-1,6 4,76 49,87 20,5 49,20 70,-17 11,-19 4,-29 11,-57 43,11 72,22 97,62l5 8c0,0 5,10 6,11 30,58 -5,31 28,60 10,-44 7,-22 -1,-51 0,-1 -1,-3 -1,-4 0,-1 -1,-3 -1,-5l-12 -38c-4,-7 -6,-10 -13,-17l-34 -31c-49,-32 -138,-66 -163,-58l-8 3c-16,8 -27,25 -33,47z"/>
   <path class="fil3" d="M1621 458c-81,-20 -49,-127 -49,-138 -29,12 -32,46 -29,73 1,4 6,31 8,36 3,7 4,9 9,16 26,39 74,50 109,35l19 -11c18,-13 32,-55 39,-85 86,29 23,119 37,186 25,-11 26,-51 34,-92 12,-70 -36,-121 -71,-129 -52,-12 -15,95 -76,108 -5,1 -27,2 -30,1z"/>
   <path class="fil2" d="M2477 1011c3,23 16,30 16,67 -36,14 -102,31 -82,-52 3,-14 14,-15 25,-25l41 10zm0 -25c-122,-30 -85,72 -85,93 -79,-20 -103,-24 -137,-85l-11 -19c-10,-15 1,-9 -18,-20l18 61c0,1 1,3 1,4 8,22 -5,10 29,39l22 18c0,0 12,6 18,9 36,18 122,41 163,32 64,-14 32,-124 0,-132z"/>
   <path class="fil11" d="M1209 470c-9,28 -10,14 -21,64 -30,-8 -36,-15 -70,-24 -6,40 17,23 61,59 0,24 0,26 -7,55l18 5c7,-26 8,-18 16,-40 17,14 33,27 61,34 -1,-30 -8,-8 -3,-39 -73,-25 -42,-63 -40,-73 26,13 14,18 64,43 8,4 27,11 38,18 21,13 7,10 43,19 -4,-38 -64,-64 -111,-100 -29,-22 -17,-16 -49,-21z"/>
   <path class="fil2" d="M978 570l-54 -13 31 26c-19,59 -110,79 -112,23l-30 -7c-14,53 -72,62 -99,25 -9,-12 -6,-15 -19,-30l16 -40c5,-23 2,-2 -2,-19 -17,2 -7,-2 -18,12 -19,30 -23,77 18,110 38,31 89,17 106,-14 14,5 60,59 137,1 27,-20 33,-42 26,-74z"/>
   <path class="fil7" d="M2998 730l-18 -4 10 101 15 31c-30,-7 -29,0 -55,-7 -53,-13 -83,-33 -134,-46l-4 18c17,10 8,7 23,17 97,64 139,42 210,60 21,-42 20,-37 -7,-77 -8,-13 0,-5 -11,-19l-23 -37c-11,-24 -12,-11 -6,-37z"/>
   <path class="fil12" d="M999 216c0,19 8,20 17,35 -17,21 -22,49 -51,58 -33,11 -67,-7 -90,-39 0,-1 -1,-2 -2,-3l-50 -72c-11,-19 -6,-18 -33,-25 -25,104 -41,120 -14,135 9,-38 20,-57 27,-88l12 3c1,27 1,14 15,32 17,22 25,58 70,80 111,53 175,-91 99,-116z"/>
   <path class="fil7" d="M540 373c-15,12 -17,9 -40,9 -73,1 -117,-46 -155,-38 11,24 -5,2 18,20 32,25 85,46 123,45 19,0 14,0 38,4 91,13 44,-51 25,-86l-17 -26c-1,-1 -2,-2 -2,-3 -1,-1 -2,-3 -3,-4l-20 -35c-9,-10 10,-9 -12,-7 -14,1 -6,19 4,54 8,31 2,10 19,34l9 15c11,21 -8,4 13,18z"/>
   <path class="fil13" d="M1167 314c-8,0 -16,-4 -21,-4 -44,-4 -16,-14 -32,10 24,15 53,19 87,28 35,9 52,3 83,15 52,19 111,33 173,48l49 -202 -43 172c-64,-10 -151,-38 -222,-52 -16,-3 -16,-4 -27,-6 -16,-2 -29,-4 -47,-9z"/>
   <path class="fil5" d="M2144 983l5 -19c-61,-25 -139,-35 -180,-41 -42,-7 -139,-60 -175,-31l175 52c36,14 127,35 175,39z"/>
   <path class="fil14" d="M221 1234c-7,0 -16,10 -3,8 6,-1 20,-7 3,-8z"/>
  </g>
 </g>
</svg>
