<?xml version="1.0" encoding="UTF-8"?>
<!DOCTYPE svg PUBLIC "-//W3C//DTD SVG 1.1//EN" "http://www.w3.org/Graphics/SVG/1.1/DTD/svg11.dtd">
<!-- Creator: CorelDRAW X8 -->
<svg xmlns="http://www.w3.org/2000/svg" xml:space="preserve" width="97.8958mm" height="42.3334mm" version="1.1" style="shape-rendering:geometricPrecision; text-rendering:geometricPrecision; image-rendering:optimizeQuality; fill-rule:evenodd; clip-rule:evenodd"
viewBox="0 0 2197 950"
 xmlns:xlink="http://www.w3.org/1999/xlink">
 <defs>
  <style type="text/css">
   <![CDATA[
    .fil0 {fill:#F0CB11}
    .fil1 {fill:yellow}
    .fil2 {fill:white}
   ]]>
  </style>
 </defs>
 <g id="Camada_x0020_1">
  <metadata id="CorelCorpID_0Corel-Layer"/>
  <g id="_2667742276160">
   <circle class="fil0" cx="30" cy="30" r="30"/>
   <circle class="fil0" cx="208" cy="30" r="30"/>
   <circle class="fil0" cx="386" cy="30" r="30"/>
   <circle class="fil0" cx="564" cy="30" r="30"/>
   <circle class="fil0" cx="742" cy="30" r="30"/>
   <circle class="fil0" cx="920" cy="30" r="30"/>
   <circle class="fil0" cx="1098" cy="30" r="30"/>
   <circle class="fil0" cx="1277" cy="30" r="30"/>
   <circle class="fil0" cx="1455" cy="30" r="30"/>
   <circle class="fil0" cx="1633" cy="30" r="30"/>
   <circle class="fil0" cx="1811" cy="30" r="30"/>
   <circle class="fil0" cx="1989" cy="30" r="30"/>
   <circle class="fil0" cx="2167" cy="30" r="30"/>
   <circle class="fil0" cx="30" cy="208" r="30"/>
   <circle class="fil0" cx="208" cy="208" r="30"/>
   <circle class="fil0" cx="386" cy="208" r="30"/>
   <circle class="fil0" cx="564" cy="208" r="30"/>
   <circle class="fil0" cx="742" cy="208" r="30"/>
   <circle class="fil0" cx="920" cy="208" r="30"/>
   <circle class="fil0" cx="1098" cy="208" r="30"/>
   <circle class="fil0" cx="1277" cy="208" r="30"/>
   <circle class="fil0" cx="1455" cy="208" r="30"/>
   <circle class="fil0" cx="1633" cy="208" r="30"/>
   <circle class="fil0" cx="1811" cy="208" r="30"/>
   <circle class="fil0" cx="1989" cy="208" r="30"/>
   <circle class="fil0" cx="2167" cy="208" r="30"/>
  </g>
  <circle class="fil1" cx="30" cy="386" r="30"/>
  <circle class="fil1" cx="208" cy="386" r="30"/>
  <circle class="fil1" cx="386" cy="386" r="30"/>
  <circle class="fil1" cx="564" cy="386" r="30"/>
  <circle class="fil1" cx="742" cy="386" r="30"/>
  <circle class="fil1" cx="920" cy="386" r="30"/>
  <circle class="fil2" cx="1098" cy="386" r="30"/>
  <circle class="fil2" cx="1277" cy="386" r="30"/>
  <circle class="fil2" cx="1455" cy="386" r="30"/>
  <circle class="fil2" cx="1633" cy="386" r="30"/>
  <circle class="fil2" cx="1811" cy="386" r="30"/>
  <circle class="fil2" cx="1989" cy="386" r="30"/>
  <circle class="fil2" cx="2167" cy="386" r="30"/>
  <circle class="fil1" cx="30" cy="564" r="30"/>
  <circle class="fil1" cx="208" cy="564" r="30"/>
  <circle class="fil1" cx="386" cy="564" r="30"/>
  <circle class="fil1" cx="564" cy="564" r="30"/>
  <circle class="fil1" cx="742" cy="564" r="30"/>
  <circle class="fil1" cx="920" cy="564" r="30"/>
  <circle class="fil2" cx="1098" cy="564" r="30"/>
  <circle class="fil2" cx="1277" cy="564" r="30"/>
  <circle class="fil2" cx="1455" cy="564" r="30"/>
  <circle class="fil2" cx="1633" cy="564" r="30"/>
  <circle class="fil2" cx="1811" cy="564" r="30"/>
  <circle class="fil2" cx="1989" cy="564" r="30"/>
  <circle class="fil2" cx="2167" cy="564" r="30"/>
  <circle class="fil1" cx="30" cy="742" r="30"/>
  <circle class="fil1" cx="208" cy="742" r="30"/>
  <circle class="fil1" cx="386" cy="742" r="30"/>
  <circle class="fil1" cx="564" cy="742" r="30"/>
  <circle class="fil1" cx="742" cy="742" r="30"/>
  <circle class="fil1" cx="920" cy="742" r="30"/>
  <circle class="fil1" cx="1098" cy="742" r="30"/>
  <circle class="fil2" cx="1277" cy="742" r="30"/>
  <circle class="fil2" cx="1455" cy="742" r="30"/>
  <circle class="fil2" cx="1633" cy="742" r="30"/>
  <circle class="fil2" cx="1811" cy="742" r="30"/>
  <circle class="fil2" cx="1989" cy="742" r="30"/>
  <circle class="fil2" cx="2167" cy="742" r="30"/>
  <circle class="fil1" cx="30" cy="920" r="30"/>
  <circle class="fil1" cx="208" cy="920" r="30"/>
  <circle class="fil1" cx="386" cy="920" r="30"/>
  <circle class="fil1" cx="564" cy="920" r="30"/>
  <circle class="fil1" cx="742" cy="920" r="30"/>
  <circle class="fil1" cx="920" cy="920" r="30"/>
  <circle class="fil1" cx="1098" cy="920" r="30"/>
  <circle class="fil1" cx="1277" cy="920" r="30"/>
  <circle class="fil2" cx="1455" cy="920" r="30"/>
  <circle class="fil2" cx="1633" cy="920" r="30"/>
  <circle class="fil2" cx="1811" cy="920" r="30"/>
  <circle class="fil2" cx="1989" cy="920" r="30"/>
  <circle class="fil2" cx="2167" cy="920" r="30"/>
 </g>
</svg>
