<?xml version="1.0" encoding="UTF-8"?>
<!DOCTYPE svg PUBLIC "-//W3C//DTD SVG 1.1//EN" "http://www.w3.org/Graphics/SVG/1.1/DTD/svg11.dtd">
<!-- Creator: CorelDRAW X8 -->
<svg xmlns="http://www.w3.org/2000/svg" xml:space="preserve" width="10.5833mm" height="5.4088mm" version="1.1" style="shape-rendering:geometricPrecision; text-rendering:geometricPrecision; image-rendering:optimizeQuality; fill-rule:evenodd; clip-rule:evenodd"
viewBox="0 0 39 20"
 xmlns:xlink="http://www.w3.org/1999/xlink">
 <defs>
  <style type="text/css">
   <![CDATA[
    .fil0 {fill:#0BA343}
    .fil2 {fill:#15A5C8}
    .fil1 {fill:#28A657}
    .fil13 {fill:#96CCD7}
    .fil11 {fill:#E71517}
    .fil12 {fill:#EBC427}
    .fil9 {fill:#EC4812}
    .fil4 {fill:#ED1628}
    .fil7 {fill:#EE2E2E}
    .fil8 {fill:#EF8C2F}
    .fil3 {fill:#F2F42F}
    .fil5 {fill:#F6C316}
    .fil6 {fill:#F6C327}
    .fil10 {fill:#F8F928}
   ]]>
  </style>
 </defs>
 <g id="Camada_x0020_1">
  <metadata id="CorelCorpID_0Corel-Layer"/>
  <g id="_2667707916960">
   <path class="fil0" d="M35 2l0 0zm0 0c0,0 0,0 0,0 0,0 0,0 1,0 0,0 0,0 0,0l0 0c0,0 0,0 0,0 0,0 0,0 0,0l0 1c0,0 0,0 0,0l1 0c0,0 0,0 0,0l0 0c0,0 0,0 0,0 0,0 0,0 0,0l0 1c1,1 1,1 1,1 0,0 0,0 0,0 0,1 0,0 0,1l0 1c1,1 0,1 0,2l0 2 -1 2 -3 2c0,0 -1,1 -1,1 -1,0 -1,1 -2,1 0,-1 0,-2 0,-2l0 -13c0,0 0,-1 0,-1 0,0 0,-1 0,-1 0,0 0,0 0,0 0,5 0,10 0,14 0,1 0,1 0,1l0 2c0,0 0,0 0,0 0,0 1,0 1,0 1,-1 1,0 2,-1l1 0c0,-1 1,-2 2,-2 0,-1 0,-1 1,-1 0,-1 0,-1 1,-2 0,-1 0,-3 0,-4 0,-1 0,-1 0,-2 0,0 -1,-1 -1,-1l-1 -1c-1,-1 -1,-1 -2,-2 0,0 0,0 0,0 -1,0 -3,-1 -3,-1 0,0 0,0 1,0 0,1 0,1 0,1 1,0 1,0 1,0 0,0 1,0 1,1l0 0z"/>
   <path class="fil1" d="M19 8l-3 0c0,-1 0,-4 0,-5 1,0 1,0 2,0l1 0c1,0 2,0 2,1 0,0 0,0 0,0 0,1 0,2 0,4 -1,0 -1,0 -2,0zm2 1c0,0 0,0 0,-1 0,0 0,0 0,-1 0,0 0,-1 0,-2l0 -2c0,0 0,0 -1,0l-4 0c0,0 0,0 0,0 -1,0 0,0 -1,0l0 3 0 2c1,0 1,2 1,3 0,0 0,1 0,1 0,0 0,0 0,0 0,-1 0,0 0,-2 0,0 0,-1 0,-2l4 0c0,0 0,0 1,0 0,1 0,2 0,2 0,1 0,2 0,3 -2,0 -4,0 -5,0l0 0c1,0 1,0 2,0 1,0 2,0 2,0 1,0 1,0 1,-1 0,-1 0,-2 0,-3z"/>
   <path class="fil2" d="M5 5c0,0 0,0 0,1l0 1c0,1 1,1 0,1 0,1 0,1 0,2l0 2c0,1 0,1 2,1l4 0c0,-1 0,-1 0,-2 0,0 0,-1 0,-2 0,0 0,-1 -1,-1 0,1 0,2 0,3 0,1 0,0 0,1l0 0c0,0 -4,1 -4,0l0 -4c0,0 1,0 2,0 1,0 1,0 2,0l0 0c-1,0 -1,0 -2,0 -1,0 -2,0 -2,0l0 -5 2 0c1,0 1,0 2,0l0 1c0,0 0,0 0,1 0,0 0,1 0,1 1,1 0,0 1,1 0,0 -1,-1 0,0l0 0c0,0 0,0 0,-1 0,0 0,0 0,0 0,-1 0,0 0,-1 0,0 0,1 1,0l-1 0 0 -2c0,0 0,0 -1,0 0,0 -4,0 -5,0 0,0 0,1 0,2z"/>
   <path class="fil3" d="M26 8c1,0 3,0 5,0 0,1 0,2 0,3l0 2 -4 0c0,0 0,0 0,0 -1,0 -1,0 -1,0l0 -5zm5 -8l0 3c-1,0 -2,0 -3,0 0,0 -1,0 -2,0 0,1 2,1 2,1l3 0c0,0 0,1 0,2 0,1 0,1 0,2 -1,0 -2,0 -3,0 0,0 -1,0 -2,0l0 -2c0,0 0,0 0,-1 0,0 0,-1 0,-1 0,0 0,0 0,1 0,0 0,0 0,0 0,1 0,2 0,2l0 0 0 4 0 0 0 2c0,1 0,0 1,0 0,0 1,0 1,0 2,0 2,1 3,0 0,1 0,1 0,1 0,-4 0,-9 0,-14z"/>
   <path class="fil4" d="M5 5c0,0 -3,0 -4,0 0,0 0,0 -1,0 0,0 0,4 0,4 0,2 0,2 2,2 1,0 2,0 3,-1 0,0 -1,0 -1,0 -1,0 -1,0 -2,0 -1,0 -1,0 -2,0 0,0 0,-1 0,-1l0 -1c0,-1 0,-2 0,-2l3 -1c0,0 1,0 2,0 0,1 0,1 0,1 0,1 0,1 0,2 1,0 0,0 0,-1l0 -1c0,-1 0,-1 0,-1z"/>
   <path class="fil5" d="M35 7c-1,0 -1,1 -2,1 0,1 0,1 0,1l0 1c1,0 2,0 3,0 1,0 1,0 1,0 -2,0 -3,0 -3,-1 0,0 0,0 0,-1 0,0 1,-1 2,0l0 1c1,0 0,0 1,1 0,0 0,-1 0,-1 0,0 0,0 0,0 0,0 0,-1 0,-1l0 0c-1,0 -1,-1 -2,-1z"/>
   <path class="fil6" d="M15 8c0,1 0,1 0,1 0,1 0,1 0,2 -5,0 -4,0 -4,-2 0,-1 0,-1 0,-1 0,0 0,-1 0,-1l0 0c-1,-1 0,0 0,0 -1,-1 0,0 -1,-1 0,1 0,0 0,1l0 0c0,1 0,1 0,1 1,0 1,1 1,1 0,1 0,2 0,2l5 0c0,-1 0,-3 -1,-3z"/>
   <path class="fil7" d="M21 5c0,1 0,2 0,2 0,1 0,1 0,1 0,1 0,1 0,1 0,0 0,0 0,-1l0 -2 4 0c0,0 0,0 1,0 0,0 -1,1 0,1l0 0c0,0 0,-1 0,-2 -1,0 -1,0 -1,0l-2 0c0,0 0,0 -1,0 0,0 -1,0 -1,0z"/>
   <path class="fil8" d="M29 5c-1,1 -1,2 -2,2 0,-1 -1,-1 0,-2 1,0 1,0 2,0zm1 2c0,0 0,-1 -1,-1 0,0 0,0 0,-1 0,0 0,0 1,1 0,0 0,0 0,0 0,0 0,0 0,0 1,0 0,-1 -1,-1 0,0 0,0 0,0 -1,0 -1,0 -1,0 -1,0 -1,0 -1,0 0,0 0,1 -1,1 1,0 1,0 1,0 0,1 1,1 1,1 0,0 0,0 0,0l1 -1c0,0 0,0 0,0 0,0 0,0 0,0 0,0 1,1 1,1 0,-1 0,0 0,0z"/>
   <path class="fil9" d="M25 6c0,1 0,1 0,1 0,0 0,0 0,1 0,0 0,0 0,1l-1 -1c0,0 0,0 -1,0 0,0 0,0 0,0 0,0 0,0 0,0 -1,0 -1,-1 -2,0 1,0 1,0 1,0 1,0 1,0 1,0 0,1 0,1 0,1 0,0 0,0 0,-1 1,1 1,1 1,1 0,0 0,0 1,0 0,1 0,1 0,1 0,-1 0,-3 0,-4z"/>
   <path class="fil6" d="M17 10c1,0 1,1 0,1 -1,0 -1,-1 0,-1zm-1 0c0,0 1,1 1,1 0,0 1,0 1,0 0,0 0,-1 0,-1 1,0 1,0 1,1l0 0c0,0 1,0 1,0 0,0 0,0 0,0 0,0 0,0 0,0 0,0 0,0 0,0 0,0 0,0 0,0l0 -1c0,0 -1,0 -1,0l0 0c-1,-1 -2,-1 -2,0l0 0c-1,0 -1,0 -1,0z"/>
   <path class="fil2" d="M18 6c-1,0 -1,-2 -1,-2 -1,1 -1,1 -1,1 0,0 1,1 1,1 0,0 0,0 0,0 0,0 1,0 1,0l0 0c1,0 1,-1 1,-1 1,0 0,1 1,2 0,0 0,-1 0,-1 0,-1 -1,-2 -1,-2 -1,0 0,1 -1,2 0,0 0,0 0,0z"/>
   <path class="fil1" d="M30 10c0,0 0,0 0,1 0,0 -1,1 -1,0 0,-1 0,-1 0,-1l1 0zm0 0c-2,0 -1,1 -1,1 -1,0 -1,0 -2,0l0 -1c0,0 0,0 0,0l0 1c0,0 0,0 0,0 0,0 0,0 1,0l0 0c0,0 0,1 0,1 1,0 2,0 2,-1 1,0 0,-1 0,-1z"/>
   <path class="fil10" d="M13 7c-1,1 -1,0 -1,1 0,0 0,0 -1,0 1,1 1,0 1,1 1,0 1,0 1,0l0 0c0,0 0,0 0,0 0,0 0,0 1,0 0,0 0,0 0,0 -1,-1 -1,-1 -1,-1 0,0 0,0 1,0 0,0 0,0 0,0 1,0 0,0 1,0 0,0 -1,0 -2,-1 0,0 0,0 0,0z"/>
   <path class="fil1" d="M10 9l-1 0 1 0c0,1 -1,2 -2,1l0 0c0,1 -1,1 -1,1 0,0 0,0 -1,-1l1 0c0,0 0,0 -1,0 0,0 0,0 0,0 0,0 0,1 1,1 0,0 1,0 1,0 0,0 1,0 2,-1 0,0 0,0 0,-1z"/>
   <path class="fil6" d="M36 5l-1 0 1 1 0 1c0,0 0,0 -1,0 0,0 -1,0 -1,0l0 0c0,0 0,0 0,0 1,0 2,0 3,0 0,-1 0,-1 -1,-1 0,0 0,0 0,0l0 -1c0,0 0,0 0,0z"/>
   <path class="fil11" d="M9 5c0,0 0,0 0,0 0,0 0,1 0,1 0,0 -1,0 -1,0 0,0 0,0 0,0l-1 -1c0,0 0,0 -1,0 0,1 0,1 1,2 0,-1 0,-1 0,-2l0 0c0,1 0,1 0,1 0,0 1,0 1,1 2,0 2,-2 1,-2z"/>
   <path class="fil6" d="M4 8c0,0 0,0 -1,0 0,1 -1,0 -2,0 1,1 0,0 1,1 0,0 1,0 1,0 1,0 1,0 1,0 1,0 0,-1 0,-1l0 -1c0,0 0,0 0,0 0,0 0,0 -1,0l0 0c0,0 0,0 0,0 0,0 0,0 0,0 0,1 0,1 1,1l0 0c0,0 0,0 0,0z"/>
   <path class="fil12" d="M12 5c-1,1 -1,0 -1,0 0,1 0,0 0,1 0,0 1,0 1,0 1,0 1,0 1,0 1,0 2,0 2,0l0 -3 0 2c0,0 -2,0 -3,0 0,0 0,0 0,0 0,0 0,0 0,0z"/>
   <path class="fil4" d="M26 11l0 0c-1,-1 -2,0 -3,0 0,0 -2,-1 -2,0l2 0c1,0 2,0 3,0z"/>
   <path class="fil13" d="M2 20c0,0 0,0 0,0 1,0 1,0 0,0z"/>
  </g>
 </g>
</svg>
